<svg xmlns="http://www.w3.org/2000/svg" width="52" height="52" viewBox="0 0 52 52" fill="none">
    <path fill-rule="evenodd" clip-rule="evenodd"
        d="M38.3243 33.1081C38.3243 32.0333 39.1956 31.1621 40.2703 31.1621H43.5135C44.5882 31.1621 45.4595 32.0333 45.4595 33.1081C45.4595 34.1828 44.5882 35.054 43.5135 35.054H40.2703C39.1956 35.054 38.3243 34.1828 38.3243 33.1081Z"
        fill="#8EFFCF" />
    <g filter="url(#filter0_dd_561_6395)">
        <path fill-rule="evenodd" clip-rule="evenodd"
            d="M17.8919 1C14.3095 1 11.4054 3.9041 11.4054 7.48649V10.4054H8.48649C4.9041 10.4054 2 13.3095 2 16.8919C2 20.3336 4.68049 23.1492 8.06772 23.3651C7.07265 25.3657 6.54063 27.5874 6.54047 29.8639C6.54019 33.7348 8.07763 37.4472 10.8145 40.1845C13.5515 42.9218 17.2637 44.4598 21.1345 44.4601C23.4116 44.4602 25.6338 43.9283 27.635 42.933C27.8512 46.3199 30.6667 49 34.1081 49C37.6905 49 40.5946 46.0959 40.5946 42.5135V39.5946H43.5135C47.0959 39.5946 50 36.6905 50 33.1081C50 29.6658 47.3186 26.8498 43.9305 26.6348C44.9255 24.6342 45.4575 22.4126 45.4576 20.1362C45.4579 16.2653 43.9205 12.5529 41.1836 9.8156C38.4466 7.07829 34.7344 5.54034 30.8636 5.54007C28.5872 5.5399 26.3657 6.07153 24.365 7.06616C24.1484 3.67967 21.3331 1 17.8919 1Z"
            fill="#6BB696" />
    </g>
    <g filter="url(#filter1_dd_561_6395)">
        <path fill-rule="evenodd" clip-rule="evenodd"
            d="M19.8378 7.48696C19.8378 6.41225 18.9666 5.54102 17.8919 5.54102C16.8172 5.54102 15.9459 6.41225 15.9459 7.48696V10.7302C15.9459 11.8049 16.8172 12.6762 17.8919 12.6762C18.9666 12.6762 19.8378 11.8049 19.8378 10.7302V7.48696ZM25.851 16.5428L26.5522 15.7311C27.7033 14.6046 29.2505 13.9729 30.8629 13.973C32.4973 13.9731 34.0648 14.6225 35.2204 15.7783C36.3761 16.9341 37.0252 18.5016 37.0251 20.1361C37.025 21.7493 36.3923 23.2974 35.2644 24.4485L34.4534 25.1532C33.6422 25.8581 33.5559 27.0872 34.2609 27.8985C34.9658 28.7097 36.1948 28.7959 37.0061 28.091L37.872 27.3386C37.9063 27.3088 37.9395 27.2779 37.9716 27.2458C39.8573 25.3603 40.9168 22.803 40.917 20.1363C40.9172 17.4697 39.8581 14.9122 37.9726 13.0265C36.0871 11.1408 33.5298 10.0813 30.8632 10.0811C28.1965 10.0809 25.639 11.14 23.7533 13.0255C23.7198 13.059 23.6876 13.0937 23.6566 13.1295L22.9058 13.9987C22.2032 14.812 22.293 16.0408 23.1063 16.7434C23.9196 17.4459 25.1485 17.3561 25.851 16.5428ZM32.2408 18.7596C33.0008 19.5196 33.0008 20.7517 32.2408 21.5116L22.5111 31.2413C21.7512 32.0013 20.5191 32.0013 19.7591 31.2413C18.9992 30.4814 18.9992 29.2493 19.7591 28.4893L29.4889 18.7596C30.2488 17.9997 31.4809 17.9997 32.2408 18.7596ZM34.1081 37.3248C35.1828 37.3248 36.054 38.196 36.054 39.2707V42.514C36.054 43.5887 35.1828 44.4599 34.1081 44.4599C33.0334 44.4599 32.1621 43.5887 32.1621 42.514V39.2707C32.1621 38.196 33.0334 37.3248 34.1081 37.3248ZM17.5588 24.8371C18.3642 24.1255 18.4402 22.8957 17.7286 22.0903C17.017 21.285 15.7872 21.209 14.9818 21.9206L14.1321 22.6714L14.0524 22.7459C13.111 23.6767 12.3637 24.7851 11.8536 26.0067C11.3435 27.2283 11.0809 28.539 11.0809 29.8629C11.0809 31.1867 11.3435 32.4974 11.8536 33.7191C12.3637 34.9407 13.111 36.0491 14.0524 36.9799C15.9552 38.8614 18.5232 39.9167 21.1992 39.9167C23.8753 39.9167 26.4434 38.8614 28.3462 36.9798C28.4162 36.9106 28.4808 36.8361 28.5395 36.7571L29.1833 35.8912C29.8245 35.0287 29.6452 33.8097 28.7827 33.1685C27.9202 32.5273 26.7012 32.7067 26.06 33.5692L25.5105 34.3084C24.347 35.4094 22.8046 36.0249 21.1992 36.0249C19.5479 36.0249 17.963 35.3736 16.7888 34.2124C16.2135 33.6435 15.7568 32.9662 15.445 32.2196C15.1333 31.473 14.9728 30.672 14.9728 29.8629C14.9728 29.0538 15.1333 28.2528 15.445 27.5062C15.7502 26.7752 16.1944 26.1106 16.7528 25.5493L17.5588 24.8371ZM40.2703 31.1626C39.1955 31.1626 38.3243 32.0339 38.3243 33.1086C38.3243 34.1833 39.1955 35.0545 40.2703 35.0545H43.5135C44.5882 35.0545 45.4594 34.1833 45.4594 33.1086C45.4594 32.0339 44.5882 31.1626 43.5135 31.1626H40.2703ZM6.54053 16.8924C6.54053 15.8176 7.41176 14.9464 8.48647 14.9464H11.7297C12.8044 14.9464 13.6757 15.8176 13.6757 16.8924C13.6757 17.9671 12.8044 18.8383 11.7297 18.8383H8.48647C7.41176 18.8383 6.54053 17.9671 6.54053 16.8924Z"
            fill="#8EFFCF" />
    </g>
    <defs>
        <filter id="filter0_dd_561_6395" x="0.378378" y="0.027027" width="51.2432" height="51.2432"
            filterUnits="userSpaceOnUse" color-interpolation-filters="sRGB">
            <feFlood flood-opacity="0" result="BackgroundImageFix" />
            <feColorMatrix in="SourceAlpha" type="matrix"
                values="0 0 0 0 0 0 0 0 0 0 0 0 0 0 0 0 0 0 127 0" result="hardAlpha" />
            <feOffset dy="0.324324" />
            <feGaussianBlur stdDeviation="0.162162" />
            <feColorMatrix type="matrix"
                values="0 0 0 0 0 0 0 0 0 0.219608 0 0 0 0 0.0666667 0 0 0 0.39 0" />
            <feBlend mode="normal" in2="BackgroundImageFix" result="effect1_dropShadow_561_6395" />
            <feColorMatrix in="SourceAlpha" type="matrix"
                values="0 0 0 0 0 0 0 0 0 0 0 0 0 0 0 0 0 0 127 0" result="hardAlpha" />
            <feOffset dy="0.648649" />
            <feGaussianBlur stdDeviation="0.810811" />
            <feColorMatrix type="matrix"
                values="0 0 0 0 0 0 0 0 0 0.219608 0 0 0 0 0.0666667 0 0 0 0.19 0" />
            <feBlend mode="normal" in2="effect1_dropShadow_561_6395"
                result="effect2_dropShadow_561_6395" />
            <feBlend mode="normal" in="SourceGraphic" in2="effect2_dropShadow_561_6395"
                result="shape" />
        </filter>
        <filter id="filter1_dd_561_6395" x="6.2162" y="5.54102" width="39.5676" height="39.5676"
            filterUnits="userSpaceOnUse" color-interpolation-filters="sRGB">
            <feFlood flood-opacity="0" result="BackgroundImageFix" />
            <feColorMatrix in="SourceAlpha" type="matrix"
                values="0 0 0 0 0 0 0 0 0 0 0 0 0 0 0 0 0 0 127 0" result="hardAlpha" />
            <feOffset dy="0.324324" />
            <feGaussianBlur stdDeviation="0.162162" />
            <feColorMatrix type="matrix" values="0 0 0 0 0 0 0 0 0 0 0 0 0 0 0 0 0 0 0.07 0" />
            <feBlend mode="normal" in2="BackgroundImageFix" result="effect1_dropShadow_561_6395" />
            <feColorMatrix in="SourceAlpha" type="matrix"
                values="0 0 0 0 0 0 0 0 0 0 0 0 0 0 0 0 0 0 127 0" result="hardAlpha" />
            <feOffset dy="0.324324" />
            <feGaussianBlur stdDeviation="0.162162" />
            <feColorMatrix type="matrix" values="0 0 0 0 0 0 0 0 0 0 0 0 0 0 0 0 0 0 0.04 0" />
            <feBlend mode="normal" in2="effect1_dropShadow_561_6395"
                result="effect2_dropShadow_561_6395" />
            <feBlend mode="normal" in="SourceGraphic" in2="effect2_dropShadow_561_6395"
                result="shape" />
        </filter>
    </defs>
</svg>