<svg xmlns="http://www.w3.org/2000/svg" width="16" height="16" viewBox="0 0 16 16" fill="none">
    <path
        d="M5.82927 2.30374C5.78894 2.27879 5.75655 2.2429 5.73585 2.20024C5.71516 2.15757 5.70702 2.10991 5.7124 2.0628C5.71777 2.01569 5.73643 1.97108 5.7662 1.93417C5.79596 1.89727 5.83561 1.86959 5.88052 1.85436C6.79239 1.54017 7.76279 1.43296 8.72126 1.54053C9.67973 1.64809 10.6022 1.96773 11.4218 2.47624C11.4515 2.49496 11.4769 2.51973 11.4964 2.54893C11.5159 2.57814 11.529 2.61112 11.5349 2.64573C11.5408 2.68034 11.5393 2.7158 11.5306 2.74981C11.5219 2.78382 11.5061 2.81561 11.4843 2.84311C10.7606 3.76785 9.87317 4.5517 8.86614 5.15561C8.05268 4.01327 7.02041 3.04389 5.82927 2.30374ZM7.97364 5.62499C7.06082 4.37943 5.85993 3.37346 4.47364 2.69311C4.43395 2.67383 4.3898 2.66558 4.34582 2.6692C4.30184 2.67283 4.25964 2.68821 4.22364 2.71374C3.10138 3.51649 2.26246 4.65431 1.82739 5.96374C1.81646 5.99722 1.81273 6.03263 1.81644 6.06766C1.82015 6.10268 1.83122 6.13653 1.84892 6.16698C1.86663 6.19742 1.89056 6.22379 1.91916 6.24434C1.94777 6.26489 1.98039 6.27917 2.01489 6.28624C2.66724 6.42685 3.33256 6.4985 3.99989 6.49999C5.37234 6.50073 6.72844 6.20213 7.97364 5.62499ZM14.4611 7.29311C14.3022 5.84344 13.6595 4.48959 12.6368 3.44999C12.6118 3.42466 12.5818 3.40493 12.5486 3.39213C12.5155 3.37933 12.4799 3.37375 12.4445 3.37577C12.409 3.37778 12.3743 3.38733 12.3428 3.4038C12.3113 3.42026 12.2837 3.44325 12.2618 3.47124C11.4707 4.47898 10.5031 5.33455 9.40614 5.99624C9.74886 6.58996 10.0325 7.21588 10.253 7.86499C11.1484 7.62224 12.0721 7.4995 12.9999 7.49999C13.3967 7.5 13.7931 7.52233 14.1874 7.56686C14.2241 7.57052 14.2611 7.56602 14.2959 7.55368C14.3306 7.54134 14.3622 7.52147 14.3884 7.49548C14.4145 7.4695 14.4346 7.43805 14.4472 7.40338C14.4598 7.36872 14.4646 7.3317 14.4611 7.29499V7.29311ZM10.5293 8.82436C10.7145 9.61239 10.8078 10.4192 10.8074 11.2287C10.807 12.0036 10.7209 12.776 10.5505 13.5319C10.5396 13.5782 10.5422 13.6266 10.5578 13.6715C10.5735 13.7164 10.6017 13.7559 10.639 13.7854C10.6763 13.8148 10.7213 13.833 10.7686 13.8378C10.8159 13.8426 10.8636 13.8338 10.9061 13.8125C11.8541 13.337 12.6716 12.6372 13.2878 11.7741C13.9039 10.9109 14.3 9.91037 14.4418 8.85936C14.4461 8.82659 14.4438 8.79329 14.4351 8.76139C14.4265 8.72949 14.4115 8.69963 14.3913 8.67354C14.371 8.64744 14.3457 8.62562 14.3169 8.60935C14.2882 8.59308 14.2565 8.58267 14.2236 8.57874C12.9877 8.41967 11.7325 8.5046 10.5293 8.82874V8.82436ZM9.30177 8.17124C9.10025 7.58026 8.84087 7.01062 8.52739 6.47061C7.11466 7.14931 5.5672 7.50114 3.99989 7.49999C3.26727 7.50003 2.53664 7.42357 1.81989 7.27186C1.78531 7.26457 1.74958 7.26469 1.71504 7.27221C1.68051 7.27974 1.64797 7.2945 1.61956 7.31553C1.59115 7.33656 1.56753 7.36337 1.55024 7.39419C1.53295 7.42502 1.52239 7.45916 1.51927 7.49436C1.50635 7.66103 1.49968 7.82957 1.49927 7.99999C1.49894 8.89002 1.6819 9.77059 2.03674 10.5868C2.39158 11.4031 2.9107 12.1375 3.56177 12.7444C3.58923 12.7695 3.62197 12.7882 3.6576 12.7991C3.69322 12.81 3.73083 12.8128 3.76767 12.8073C3.80452 12.8018 3.83966 12.7881 3.87054 12.7673C3.90142 12.7464 3.92725 12.719 3.94614 12.6869C5.16603 10.617 7.05515 9.02479 9.30177 8.17311V8.17124ZM4.73052 13.3281C4.71409 13.3568 4.70351 13.3885 4.6994 13.4212C4.69528 13.454 4.69771 13.4873 4.70655 13.5192C4.71538 13.551 4.73045 13.5808 4.75087 13.6068C4.77129 13.6328 4.79666 13.6545 4.82552 13.6706C6.1326 14.4034 7.65293 14.6616 9.12864 14.4012C9.17255 14.3936 9.21354 14.3741 9.24723 14.3449C9.28092 14.3158 9.30604 14.278 9.31989 14.2356C9.64224 13.2665 9.80684 12.2519 9.80739 11.2306C9.80752 10.527 9.72912 9.82558 9.57364 9.13936C7.52571 9.93729 5.81531 11.4166 4.73052 13.3281Z"
        fill="#B8509A" />
</svg>