<svg xmlns="http://www.w3.org/2000/svg" width="16" height="16" viewBox="0 0 16 16" fill="none">
    <g clip-path="url(#clip0_142_5091)">
        <path
            d="M6.6665 8.00033C6.6665 8.35395 6.80698 8.69309 7.05703 8.94313C7.30708 9.19318 7.64622 9.33366 7.99984 9.33366C8.35346 9.33366 8.6926 9.19318 8.94265 8.94313C9.19269 8.69309 9.33317 8.35395 9.33317 8.00033C9.33317 7.6467 9.19269 7.30757 8.94265 7.05752C8.6926 6.80747 8.35346 6.66699 7.99984 6.66699C7.64622 6.66699 7.30708 6.80747 7.05703 7.05752C6.80698 7.30757 6.6665 7.6467 6.6665 8.00033Z"
            stroke="#999999" stroke-width="1.2" stroke-linecap="round" stroke-linejoin="round" />
        <path
            d="M7.46133 11.9773C5.3 11.7907 3.48 10.4647 2 8C3.6 5.33333 5.6 4 8 4C10.2173 4 12.0933 5.138 13.628 7.41467"
            stroke="#999999" stroke-width="1.2" stroke-linecap="round" stroke-linejoin="round" />
        <path
            d="M12.28 10.4071C12.41 10.2771 12.5644 10.174 12.7342 10.1036C12.9041 10.0333 13.0861 9.99707 13.27 9.99707C13.4539 9.99707 13.6359 10.0333 13.8058 10.1036C13.9756 10.174 14.13 10.2771 14.26 10.4071C14.39 10.5371 14.4931 10.6915 14.5635 10.8614C14.6339 11.0312 14.6701 11.2133 14.6701 11.3971C14.6701 11.581 14.6339 11.7631 14.5635 11.9329C14.4931 12.1028 14.39 12.2571 14.26 12.3871L12 14.6671H10V12.6671L12.28 10.4071Z"
            stroke="#999999" stroke-width="1.2" stroke-linecap="round" stroke-linejoin="round" />
    </g>
    <defs>
        <clipPath id="clip0_142_5091">
            <rect width="16" height="16" fill="white" />
        </clipPath>
    </defs>
</svg>