<svg xmlns="http://www.w3.org/2000/svg" width="16" height="16" viewBox="0 0 16 16" fill="none">
    <g clip-path="url(#clip0_91_3205)">
        <path
            d="M8.00048 15.9892C12.321 15.9892 15.8235 12.4122 15.8235 7.9997C15.8235 3.58725 12.321 0.0102539 8.00048 0.0102539C3.67996 0.0102539 0.17749 3.58725 0.17749 7.9997C0.17749 12.4122 3.67996 15.9892 8.00048 15.9892Z"
            fill="black" />
        <path
            d="M8.0002 0.0407715C3.58242 0.0407715 -0.00012207 3.61343 -0.00012207 8.02125C-0.00012207 11.5478 2.29229 14.5391 5.4707 15.5941C5.87034 15.6678 6.01747 15.421 6.01747 15.2102C6.01747 15.0198 6.00976 14.391 6.00654 13.7244C3.78095 14.2071 3.31129 12.7829 3.31129 12.7829C2.94764 11.8605 2.42272 11.6151 2.42272 11.6151C1.6967 11.1196 2.47733 11.1299 2.47733 11.1299C3.28045 11.1863 3.70385 11.9522 3.70385 11.9522C4.41766 13.1726 5.57543 12.8194 6.0316 12.6156C6.10356 12.0996 6.31044 11.7477 6.53981 11.5484C4.76268 11.3465 2.89495 10.662 2.89495 7.60399C2.89495 6.73294 3.2072 6.02084 3.71927 5.46193C3.63639 5.26132 3.36269 4.44987 3.79701 3.35064C3.79701 3.35064 4.46906 3.13592 5.99755 4.16849C6.63554 3.99159 7.3198 3.90314 8.0002 3.89994C8.67996 3.90314 9.36485 3.99159 10.0041 4.16849C11.5313 3.13592 12.2021 3.35064 12.2021 3.35064C12.6377 4.44987 12.3634 5.26196 12.2805 5.46257C12.7932 6.02148 13.1035 6.73358 13.1035 7.60463C13.1035 10.6697 11.2319 11.3452 9.45031 11.5426C9.7375 11.79 9.99321 12.2759 9.99321 13.0207C9.99321 14.0885 9.98422 14.948 9.98422 15.2108C9.98422 15.4229 10.1281 15.6723 10.5335 15.5934C13.7107 14.5372 15.9999 11.5465 15.9999 8.02125C15.9999 3.61343 12.418 0.0407715 8.0002 0.0407715Z"
            fill="white" />
    </g>
    <defs>
        <clipPath id="clip0_91_3205">
            <rect width="16" height="16" fill="white" />
        </clipPath>
    </defs>
</svg>