<svg xmlns="http://www.w3.org/2000/svg" width="16" height="16" viewBox="0 0 16 16" fill="none">
    <path
        d="M4.62691 3.33321C4.62666 3.87608 4.29731 4.3646 3.79415 4.56841C3.29099 4.77222 2.7145 4.65062 2.33652 4.26095C1.95854 3.87128 1.85455 3.29135 2.07359 2.79463C2.29263 2.29791 2.79095 1.98358 3.33357 1.99987C4.05429 2.0215 4.62724 2.61217 4.62691 3.33321ZM4.66691 5.65321H2.00024V13.9999H4.66691V5.65321ZM8.88026 5.65321H6.22691V13.9999H8.85359V9.61985C8.85359 7.17985 12.0336 6.95319 12.0336 9.61985V13.9999H14.6669V8.71319C14.6669 4.59987 9.96026 4.75321 8.85359 6.77319L8.88026 5.65321Z"
        fill="white" />
</svg>