<svg xmlns="http://www.w3.org/2000/svg" width="20" height="20" viewBox="0 0 20 20" fill="none">
    <g clip-path="url(#clip0_197_1477)">
        <path d="M5 17.5L17.5 5L15 2.5L2.5 15L5 17.5Z" stroke="white" stroke-width="1.5"
            stroke-linecap="round" stroke-linejoin="round" />
        <path d="M12.5 5L15 7.5" stroke="white" stroke-width="1.5" stroke-linecap="round"
            stroke-linejoin="round" />
        <path
            d="M7.50016 2.5C7.50016 2.94203 7.67576 3.36595 7.98832 3.67851C8.30088 3.99107 8.7248 4.16667 9.16683 4.16667C8.7248 4.16667 8.30088 4.34226 7.98832 4.65482C7.67576 4.96738 7.50016 5.39131 7.50016 5.83333C7.50016 5.39131 7.32457 4.96738 7.01201 4.65482C6.69945 4.34226 6.27552 4.16667 5.8335 4.16667C6.27552 4.16667 6.69945 3.99107 7.01201 3.67851C7.32457 3.36595 7.50016 2.94203 7.50016 2.5Z"
            stroke="white" stroke-width="1.5" stroke-linecap="round" stroke-linejoin="round" />
        <path
            d="M15.8332 10.833C15.8332 11.275 16.0088 11.699 16.3213 12.0115C16.6339 12.3241 17.0578 12.4997 17.4998 12.4997C17.0578 12.4997 16.6339 12.6753 16.3213 12.9878C16.0088 13.3004 15.8332 13.7243 15.8332 14.1663C15.8332 13.7243 15.6576 13.3004 15.345 12.9878C15.0325 12.6753 14.6085 12.4997 14.1665 12.4997C14.6085 12.4997 15.0325 12.3241 15.345 12.0115C15.6576 11.699 15.8332 11.275 15.8332 10.833Z"
            stroke="white" stroke-width="1.5" stroke-linecap="round" stroke-linejoin="round" />
    </g>
    <defs>
        <clipPath id="clip0_197_1477">
            <rect width="20" height="20" fill="white" />
        </clipPath>
    </defs>
</svg>