<svg xmlns="http://www.w3.org/2000/svg" width="18" height="18" viewBox="0 0 18 18" fill="none">
    <g clip-path="url(#clip0_185_398)">
        <path d="M11.25 6H11.2575" stroke="#2E2E2E" stroke-width="1.5" stroke-linecap="round"
            stroke-linejoin="round" />
        <path
            d="M8.25 15H5.25C4.65326 15 4.08097 14.7629 3.65901 14.341C3.23705 13.919 3 13.3467 3 12.75V5.25C3 4.65326 3.23705 4.08097 3.65901 3.65901C4.08097 3.23705 4.65326 3 5.25 3H12.75C13.3467 3 13.919 3.23705 14.341 3.65901C14.7629 4.08097 15 4.65326 15 5.25V8.25"
            stroke="black" stroke-width="1.5" stroke-linecap="round" stroke-linejoin="round" />
        <path d="M3 11.2504L6 8.25036C6.696 7.58061 7.554 7.58061 8.25 8.25036L10.5 10.5004"
            stroke="black" stroke-width="1.5" stroke-linecap="round" stroke-linejoin="round" />
        <path d="M10.5 10.4997L11.25 9.74973C11.4825 9.52623 11.733 9.37698 11.9902 9.30273"
            stroke="black" stroke-width="1.5" stroke-linecap="round" stroke-linejoin="round" />
        <path
            d="M13.815 11.7074C13.9613 11.5612 14.1349 11.4451 14.326 11.366C14.5171 11.2868 14.7219 11.2461 14.9288 11.2461C15.1356 11.2461 15.3404 11.2868 15.5315 11.366C15.7226 11.4451 15.8962 11.5612 16.0425 11.7074C16.1888 11.8537 16.3048 12.0273 16.3839 12.2184C16.4631 12.4095 16.5038 12.6143 16.5038 12.8212C16.5038 13.028 16.4631 13.2328 16.3839 13.4239C16.3048 13.615 16.1888 13.7887 16.0425 13.9349L13.5 16.4999H11.25V14.2499L13.815 11.7074Z"
            stroke="black" stroke-width="1.5" stroke-linecap="round" stroke-linejoin="round" />
    </g>
    <defs>
        <clipPath id="clip0_185_398">
            <rect width="18" height="18" fill="white" />
        </clipPath>
    </defs>
</svg>