<svg xmlns="http://www.w3.org/2000/svg" width="16" height="16" viewBox="0 0 16 16" fill="none">
    <g clip-path="url(#clip0_120_3846)">
        <path
            d="M11.9998 2.00024C12.4376 2.00024 12.871 2.08646 13.2755 2.25398C13.6799 2.42149 14.0473 2.66703 14.3569 2.97655C14.6664 3.28608 14.9119 3.65355 15.0794 4.05797C15.247 4.46238 15.3332 4.89584 15.3332 5.33358V10.6669C15.3332 11.1047 15.247 11.5381 15.0794 11.9425C14.9119 12.3469 14.6664 12.7144 14.3569 13.0239C14.0473 13.3335 13.6799 13.579 13.2755 13.7465C12.871 13.914 12.4376 14.0002 11.9998 14.0002H3.99984C3.5621 14.0002 3.12864 13.914 2.72423 13.7465C2.31981 13.579 1.95234 13.3335 1.64281 13.0239C1.01769 12.3988 0.666504 11.551 0.666504 10.6669V5.33358C0.666504 4.44952 1.01769 3.60168 1.64281 2.97655C2.26794 2.35143 3.11578 2.00024 3.99984 2.00024H11.9998ZM5.99984 6.00024V10.0002C5.99993 10.1181 6.03129 10.2339 6.09071 10.3357C6.15014 10.4376 6.2355 10.5218 6.3381 10.5799C6.4407 10.638 6.55687 10.6678 6.67476 10.6663C6.79265 10.6649 6.90804 10.6322 7.00917 10.5716L10.3425 8.57158C10.4411 8.51231 10.5226 8.42855 10.5793 8.32843C10.6359 8.22832 10.6656 8.11526 10.6656 8.00024C10.6656 7.88523 10.6359 7.77217 10.5793 7.67206C10.5226 7.57194 10.4411 7.48818 10.3425 7.42891L7.00917 5.42891C6.90804 5.36831 6.79265 5.33561 6.67476 5.33416C6.55687 5.3327 6.4407 5.36253 6.3381 5.4206C6.2355 5.47868 6.15014 5.56293 6.09071 5.66475C6.03129 5.76658 5.99993 5.88235 5.99984 6.00024Z"
            fill="white" />
    </g>
    <defs>
        <clipPath id="clip0_120_3846">
            <rect width="16" height="16" fill="white" />
        </clipPath>
    </defs>
</svg>