<svg width="698" height="181" viewBox="0 0 698 181" fill="none" xmlns="http://www.w3.org/2000/svg">
<g clip-path="url(#clip0_144_1683)">
<mask id="path-1-inside-1_144_1683" fill="white">
<path d="M0 12C0 5.37259 5.37258 0 12 0H686C692.627 0 698 5.37258 698 12V181H0V12Z"/>
</mask>
<path d="M0 12C0 5.37259 5.37258 0 12 0H686C692.627 0 698 5.37258 698 12V181H0V12Z" fill="#FAFAFA"/>
<g filter="url(#filter0_f_144_1683)">
<path d="M-154.97 76L65.0007 581.5H-374.94L-154.97 76Z" fill="#C7C9FF"/>
<path d="M-29.9697 76L190.001 581.5H-249.94L-29.9697 76Z" fill="#C7C9FF"/>
<path d="M95.0303 76L315.001 581.5H-124.94L95.0303 76Z" fill="#C7C9FF"/>
<path d="M221.03 76L441.867 581.5H0.193802L221.03 76Z" fill="#C7C9FF"/>
<path d="M348.03 76L568.867 581.5H127.194L348.03 76Z" fill="#C7C9FF"/>
<path d="M474.53 76L694.934 581.5H254.127L474.53 76Z" fill="#C7C9FF"/>
<path d="M600.03 76L820.001 581.5H380.06L600.03 76Z" fill="#C7C9FF"/>
<path d="M725.53 76L945.934 581.5H505.127L725.53 76Z" fill="#C7C9FF"/>
<path d="M851.03 76L1071 581.5H631.06L851.03 76Z" fill="#C7C9FF"/>
</g>
</g>
<path d="M0 0H698H0ZM698 182H0V180H698V182ZM0 181V0V181ZM698 0V181V0Z" fill="url(#paint0_linear_144_1683)" mask="url(#path-1-inside-1_144_1683)"/>
<defs>
<filter id="filter0_f_144_1683" x="-778.97" y="-44" width="2255" height="914" filterUnits="userSpaceOnUse" color-interpolation-filters="sRGB">
<feFlood flood-opacity="0" result="BackgroundImageFix"/>
<feBlend mode="normal" in="SourceGraphic" in2="BackgroundImageFix" result="shape"/>
<feGaussianBlur stdDeviation="60" result="effect1_foregroundBlur_144_1683"/>
</filter>
<linearGradient id="paint0_linear_144_1683" x1="-1.09247e-05" y1="92.8205" x2="150.367" y2="379.78" gradientUnits="userSpaceOnUse">
<stop stop-color="#6B6EBF"/>
<stop offset="1" stop-color="#C7C9FF"/>
</linearGradient>
<clipPath id="clip0_144_1683">
<path d="M0 12C0 5.37259 5.37258 0 12 0H686C692.627 0 698 5.37258 698 12V181H0V12Z" fill="white"/>
</clipPath>
</defs>
</svg>
